<svg width="269" height="623" viewBox="0 0 269 623" fill="none" xmlns="http://www.w3.org/2000/svg">
<g opacity="0.5">
<g clip-path="url(#clip0_20_482)">
<path d="M23.9387 539.352C23.2738 539.134 22.7874 538.719 22.4795 538.109C22.1716 537.498 22.1271 536.861 22.346 536.196C22.5649 535.531 22.9795 535.045 23.5898 534.737C24.2 534.429 24.8376 534.384 25.5025 534.603C26.1674 534.822 26.6538 535.237 26.9617 535.847C27.2696 536.457 27.3141 537.095 27.0952 537.76C26.8763 538.425 26.4617 538.911 25.8514 539.219C25.2412 539.527 24.6036 539.571 23.9387 539.352ZM29.464 536.96C28.7991 536.742 28.3127 536.327 28.0048 535.717C27.6968 535.106 27.6524 534.469 27.8713 533.804C28.0902 533.139 28.5048 532.653 29.115 532.345C29.7253 532.037 30.3629 531.992 31.0277 532.211C31.6926 532.43 32.179 532.845 32.487 533.455C32.7949 534.065 32.8394 534.703 32.6205 535.368C32.4015 536.033 31.9869 536.519 31.3767 536.827C30.7664 537.135 30.1289 537.179 29.464 536.96ZM35.163 538.837C34.4981 538.618 34.0117 538.204 33.7038 537.593C33.3959 536.983 33.3514 536.345 33.5703 535.681C33.7892 535.016 34.2038 534.529 34.8141 534.221C35.4243 533.913 36.0619 533.869 36.7268 534.088C37.3916 534.307 37.878 534.721 38.186 535.332C38.4939 535.942 38.5384 536.579 38.3195 537.244C38.1005 537.909 37.6859 538.396 37.0757 538.704C36.4654 539.011 35.8279 539.056 35.163 538.837ZM38.1862 544.044C37.5213 543.825 37.0349 543.41 36.727 542.8C36.4191 542.19 36.3746 541.552 36.5935 540.887C36.8125 540.222 37.227 539.736 37.8373 539.428C38.4475 539.12 39.0851 539.076 39.75 539.295C40.4149 539.513 40.9013 539.928 41.2092 540.538C41.5171 541.149 41.5616 541.786 41.3427 542.451C41.1238 543.116 40.7092 543.602 40.0989 543.91C39.4887 544.218 38.8511 544.263 38.1862 544.044ZM22.8533 549.523C22.141 549.289 21.6333 548.819 21.3303 548.114C21.0273 547.409 20.9983 546.684 21.2432 545.94C21.5143 545.117 22.0325 544.489 22.7977 544.057C23.563 543.624 24.3217 543.199 25.0739 542.779C25.6945 542.44 26.2662 542.036 26.7889 541.567C27.3116 541.099 27.8859 540.687 28.5118 540.332C28.9956 540.035 29.5114 539.827 30.0591 539.71C30.6068 539.592 31.1497 539.621 31.688 539.798C32.2262 539.976 32.6832 540.266 33.0589 540.671C33.4346 541.075 33.7288 541.541 33.9415 542.067C34.218 542.72 34.4299 543.395 34.5774 544.093C34.7249 544.79 34.9448 545.468 35.2371 546.126C35.5931 546.91 35.9504 547.703 36.3091 548.506C36.6678 549.308 36.7117 550.121 36.4406 550.944C36.1956 551.688 35.7418 552.254 35.0791 552.641C34.4165 553.028 33.7289 553.104 33.0166 552.87C32.1617 552.588 31.3382 552.238 30.5461 551.819C29.754 551.401 28.9305 551.05 28.0757 550.769C27.2208 550.488 26.3504 550.28 25.4645 550.146C24.5786 550.012 23.7082 549.805 22.8533 549.523Z" fill="#FF9340"/>
</g>
<g clip-path="url(#clip1_20_482)">
<path d="M61.156 512.653C60.4911 512.434 60.0047 512.019 59.6968 511.409C59.3889 510.799 59.3444 510.161 59.5633 509.496C59.7822 508.832 60.1968 508.345 60.8071 508.037C61.4173 507.729 62.0549 507.685 62.7198 507.904C63.3846 508.123 63.8711 508.537 64.179 509.148C64.4869 509.758 64.5314 510.395 64.3125 511.06C64.0935 511.725 63.679 512.211 63.0687 512.519C62.4585 512.827 61.8209 512.872 61.156 512.653ZM66.6813 510.261C66.0164 510.042 65.53 509.627 65.2221 509.017C64.9141 508.407 64.8696 507.769 65.0886 507.104C65.3075 506.44 65.7221 505.953 66.3323 505.645C66.9426 505.337 67.5801 505.293 68.245 505.512C68.9099 505.731 69.3963 506.145 69.7042 506.756C70.0122 507.366 70.0567 508.003 69.8377 508.668C69.6188 509.333 69.2042 509.82 68.594 510.127C67.9837 510.435 67.3462 510.48 66.6813 510.261ZM72.3803 512.137C71.7154 511.919 71.229 511.504 70.9211 510.894C70.6131 510.283 70.5686 509.646 70.7876 508.981C71.0065 508.316 71.4211 507.83 72.0313 507.522C72.6416 507.214 73.2792 507.169 73.944 507.388C74.6089 507.607 75.0953 508.022 75.4033 508.632C75.7112 509.242 75.7557 509.88 75.5367 510.545C75.3178 511.21 74.9032 511.696 74.293 512.004C73.6827 512.312 73.0452 512.356 72.3803 512.137ZM75.4035 517.344C74.7386 517.125 74.2522 516.711 73.9443 516.1C73.6364 515.49 73.5919 514.853 73.8108 514.188C74.0297 513.523 74.4443 513.036 75.0546 512.729C75.6648 512.421 76.3024 512.376 76.9673 512.595C77.6322 512.814 78.1186 513.229 78.4265 513.839C78.7344 514.449 78.7789 515.087 78.56 515.752C78.3411 516.416 77.9265 516.903 77.3162 517.211C76.706 517.519 76.0684 517.563 75.4035 517.344ZM60.0706 522.824C59.3582 522.589 58.8505 522.119 58.5475 521.414C58.2445 520.709 58.2155 519.984 58.4605 519.24C58.7316 518.417 59.2498 517.789 60.015 517.357C60.7803 516.925 61.539 516.499 62.2912 516.08C62.9118 515.74 63.4835 515.336 64.0062 514.868C64.5289 514.4 65.1032 513.988 65.7291 513.632C66.2129 513.335 66.7287 513.128 67.2764 513.01C67.8241 512.892 68.367 512.922 68.9053 513.099C69.4435 513.276 69.9005 513.567 70.2762 513.971C70.6518 514.376 70.9461 514.841 71.1588 515.367C71.4353 516.02 71.6472 516.695 71.7947 517.393C71.9422 518.091 72.1621 518.769 72.4544 519.426C72.8104 520.21 73.1677 521.004 73.5264 521.806C73.8851 522.608 73.9289 523.421 73.6579 524.244C73.4129 524.988 72.9591 525.554 72.2964 525.941C71.6337 526.328 70.9462 526.405 70.2338 526.17C69.379 525.889 68.5555 525.539 67.7634 525.12C66.9713 524.701 66.1478 524.351 65.293 524.069C64.4381 523.788 63.5677 523.58 62.6818 523.447C61.7959 523.313 60.9255 523.105 60.0706 522.824Z" fill="#FF9340"/>
</g>
<g clip-path="url(#clip2_20_482)">
<path d="M98.3738 485.953C97.7089 485.734 97.2225 485.32 96.9146 484.71C96.6066 484.099 96.5621 483.462 96.7811 482.797C97 482.132 97.4146 481.646 98.0248 481.338C98.6351 481.03 99.2727 480.985 99.9375 481.204C100.602 481.423 101.089 481.838 101.397 482.448C101.705 483.058 101.749 483.696 101.53 484.361C101.311 485.026 100.897 485.512 100.286 485.82C99.6762 486.128 99.0387 486.172 98.3738 485.953ZM103.899 483.561C103.234 483.342 102.748 482.928 102.44 482.318C102.132 481.707 102.087 481.07 102.306 480.405C102.525 479.74 102.94 479.254 103.55 478.946C104.16 478.638 104.798 478.593 105.463 478.812C106.128 479.031 106.614 479.446 106.922 480.056C107.23 480.666 107.274 481.304 107.056 481.969C106.837 482.634 106.422 483.12 105.812 483.428C105.201 483.736 104.564 483.78 103.899 483.561ZM109.598 485.438C108.933 485.219 108.447 484.804 108.139 484.194C107.831 483.584 107.786 482.946 108.005 482.281C108.224 481.617 108.639 481.13 109.249 480.822C109.859 480.514 110.497 480.47 111.162 480.689C111.827 480.908 112.313 481.322 112.621 481.933C112.929 482.543 112.973 483.18 112.755 483.845C112.536 484.51 112.121 484.997 111.511 485.304C110.9 485.612 110.263 485.657 109.598 485.438ZM112.621 490.645C111.956 490.426 111.47 490.011 111.162 489.401C110.854 488.791 110.81 488.153 111.029 487.488C111.248 486.823 111.662 486.337 112.272 486.029C112.883 485.721 113.52 485.677 114.185 485.895C114.85 486.114 115.336 486.529 115.644 487.139C115.952 487.75 115.997 488.387 115.778 489.052C115.559 489.717 115.144 490.203 114.534 490.511C113.924 490.819 113.286 490.864 112.621 490.645ZM97.2884 496.124C96.576 495.89 96.0683 495.42 95.7653 494.715C95.4623 494.009 95.4333 493.285 95.6783 492.541C95.9494 491.718 96.4675 491.09 97.2328 490.658C97.9981 490.225 98.7568 489.799 99.5089 489.38C100.13 489.041 100.701 488.637 101.224 488.168C101.747 487.7 102.321 487.288 102.947 486.933C103.431 486.636 103.946 486.428 104.494 486.31C105.042 486.192 105.585 486.222 106.123 486.399C106.661 486.577 107.118 486.867 107.494 487.272C107.87 487.676 108.164 488.142 108.377 488.668C108.653 489.32 108.865 489.996 109.012 490.693C109.16 491.391 109.38 492.069 109.672 492.727C110.028 493.511 110.385 494.304 110.744 495.106C111.103 495.909 111.147 496.722 110.876 497.545C110.631 498.289 110.177 498.855 109.514 499.242C108.852 499.629 108.164 499.705 107.452 499.471C106.597 499.189 105.773 498.839 104.981 498.42C104.189 498.002 103.366 497.651 102.511 497.37C101.656 497.088 100.785 496.881 99.8996 496.747C99.0136 496.613 98.1432 496.406 97.2884 496.124Z" fill="#FF9340"/>
</g>
<g clip-path="url(#clip3_20_482)">
<path d="M63.1257 445.921C62.4608 445.702 61.9744 445.288 61.6665 444.677C61.3586 444.067 61.3141 443.43 61.533 442.765C61.7519 442.1 62.1665 441.613 62.7768 441.306C63.387 440.998 64.0246 440.953 64.6895 441.172C65.3544 441.391 65.8408 441.806 66.1487 442.416C66.4566 443.026 66.5011 443.664 66.2822 444.328C66.0633 444.993 65.6487 445.48 65.0384 445.788C64.4282 446.096 63.7906 446.14 63.1257 445.921ZM68.651 443.529C67.9861 443.31 67.4997 442.896 67.1918 442.285C66.8839 441.675 66.8394 441.038 67.0583 440.373C67.2772 439.708 67.6918 439.221 68.3021 438.914C68.9123 438.606 69.5499 438.561 70.2148 438.78C70.8796 438.999 71.366 439.414 71.674 440.024C71.9819 440.634 72.0264 441.272 71.8075 441.937C71.5885 442.601 71.1739 443.088 70.5637 443.396C69.9534 443.704 69.3159 443.748 68.651 443.529ZM74.35 445.406C73.6851 445.187 73.1987 444.772 72.8908 444.162C72.5829 443.552 72.5384 442.914 72.7573 442.249C72.9762 441.584 73.3908 441.098 74.0011 440.79C74.6113 440.482 75.2489 440.438 75.9138 440.657C76.5786 440.876 77.0651 441.29 77.373 441.9C77.6809 442.511 77.7254 443.148 77.5065 443.813C77.2875 444.478 76.873 444.964 76.2627 445.272C75.6525 445.58 75.0149 445.625 74.35 445.406ZM77.3732 450.612C76.7084 450.394 76.222 449.979 75.914 449.369C75.6061 448.758 75.5616 448.121 75.7805 447.456C75.9995 446.791 76.4141 446.305 77.0243 445.997C77.6346 445.689 78.2721 445.644 78.937 445.863C79.6019 446.082 80.0883 446.497 80.3962 447.107C80.7041 447.717 80.7486 448.355 80.5297 449.02C80.3108 449.685 79.8962 450.171 79.2859 450.479C78.6757 450.787 78.0381 450.831 77.3732 450.612ZM62.0403 456.092C61.328 455.857 60.8203 455.388 60.5173 454.682C60.2143 453.977 60.1853 453.253 60.4303 452.509C60.7013 451.685 61.2195 451.058 61.9848 450.625C62.75 450.193 63.5087 449.767 64.2609 449.348C64.8816 449.009 65.4532 448.605 65.9759 448.136C66.4986 447.668 67.0729 447.256 67.6988 446.901C68.1826 446.604 68.6984 446.396 69.2461 446.278C69.7938 446.16 70.3368 446.19 70.875 446.367C71.4132 446.544 71.8702 446.835 72.2459 447.24C72.6216 447.644 72.9158 448.11 73.1285 448.636C73.405 449.288 73.617 449.963 73.7644 450.661C73.9119 451.359 74.1318 452.037 74.4241 452.695C74.7801 453.479 75.1375 454.272 75.4961 455.074C75.8548 455.877 75.8987 456.69 75.6276 457.513C75.3826 458.257 74.9288 458.822 74.2661 459.21C73.6035 459.597 72.9159 459.673 72.2036 459.438C71.3487 459.157 70.5252 458.807 69.7331 458.388C68.941 457.969 68.1175 457.619 67.2627 457.338C66.4078 457.056 65.5374 456.849 64.6515 456.715C63.7656 456.581 62.8952 456.373 62.0403 456.092Z" fill="#FF9340"/>
</g>
<g clip-path="url(#clip4_20_482)">
<path d="M101.953 427.122C101.288 426.903 100.802 426.488 100.494 425.878C100.186 425.267 100.141 424.63 100.36 423.965C100.579 423.3 100.994 422.814 101.604 422.506C102.214 422.198 102.852 422.153 103.517 422.372C104.182 422.591 104.668 423.006 104.976 423.616C105.284 424.226 105.328 424.864 105.109 425.529C104.89 426.194 104.476 426.68 103.866 426.988C103.255 427.296 102.618 427.34 101.953 427.122ZM107.478 424.73C106.813 424.511 106.327 424.096 106.019 423.486C105.711 422.876 105.667 422.238 105.885 421.573C106.104 420.908 106.519 420.422 107.129 420.114C107.739 419.806 108.377 419.761 109.042 419.98C109.707 420.199 110.193 420.614 110.501 421.224C110.809 421.834 110.854 422.472 110.635 423.137C110.416 423.802 110.001 424.288 109.391 424.596C108.781 424.904 108.143 424.948 107.478 424.73ZM113.177 426.606C112.512 426.387 112.026 425.973 111.718 425.362C111.41 424.752 111.366 424.114 111.584 423.45C111.803 422.785 112.218 422.298 112.828 421.99C113.438 421.682 114.076 421.638 114.741 421.857C115.406 422.076 115.892 422.49 116.2 423.101C116.508 423.711 116.553 424.348 116.334 425.013C116.115 425.678 115.7 426.165 115.09 426.473C114.48 426.781 113.842 426.825 113.177 426.606ZM116.2 431.813C115.536 431.594 115.049 431.179 114.741 430.569C114.433 429.959 114.389 429.321 114.608 428.656C114.827 427.991 115.241 427.505 115.851 427.197C116.462 426.889 117.099 426.845 117.764 427.064C118.429 427.283 118.915 427.697 119.223 428.307C119.531 428.918 119.576 429.555 119.357 430.22C119.138 430.885 118.723 431.371 118.113 431.679C117.503 431.987 116.865 432.032 116.2 431.813ZM100.867 437.292C100.155 437.058 99.6474 436.588 99.3444 435.883C99.0414 435.178 99.0124 434.453 99.2574 433.709C99.5285 432.886 100.047 432.258 100.812 431.826C101.577 431.393 102.336 430.968 103.088 430.548C103.709 430.209 104.28 429.805 104.803 429.337C105.326 428.868 105.9 428.456 106.526 428.101C107.01 427.804 107.526 427.597 108.073 427.479C108.621 427.361 109.164 427.39 109.702 427.567C110.24 427.745 110.697 428.036 111.073 428.44C111.449 428.844 111.743 429.31 111.956 429.836C112.232 430.489 112.444 431.164 112.592 431.862C112.739 432.559 112.959 433.237 113.251 433.895C113.607 434.679 113.965 435.472 114.323 436.275C114.682 437.077 114.726 437.89 114.455 438.713C114.21 439.457 113.756 440.023 113.093 440.41C112.431 440.797 111.743 440.873 111.031 440.639C110.176 440.357 109.352 440.007 108.56 439.588C107.768 439.17 106.945 438.82 106.09 438.538C105.235 438.257 104.365 438.049 103.479 437.915C102.593 437.781 101.722 437.574 100.867 437.292Z" fill="#FF9340"/>
</g>
<g clip-path="url(#clip5_20_482)">
<path d="M50.6267 573.408C49.9618 573.189 49.4754 572.774 49.1675 572.164C48.8596 571.554 48.8151 570.916 49.034 570.251C49.2529 569.586 49.6675 569.1 50.2778 568.792C50.888 568.484 51.5256 568.439 52.1905 568.658C52.8554 568.877 53.3418 569.292 53.6497 569.902C53.9576 570.512 54.0021 571.15 53.7832 571.815C53.5642 572.48 53.1497 572.966 52.5394 573.274C51.9292 573.582 51.2916 573.627 50.6267 573.408ZM56.152 571.016C55.4871 570.797 55.0007 570.382 54.6928 569.772C54.3848 569.162 54.3403 568.524 54.5593 567.859C54.7782 567.194 55.1928 566.708 55.803 566.4C56.4133 566.092 57.0509 566.048 57.7157 566.266C58.3806 566.485 58.867 566.9 59.1749 567.51C59.4829 568.12 59.5274 568.758 59.3084 569.423C59.0895 570.088 58.6749 570.574 58.0647 570.882C57.4544 571.19 56.8169 571.235 56.152 571.016ZM61.851 572.892C61.1861 572.673 60.6997 572.259 60.3918 571.648C60.0838 571.038 60.0393 570.401 60.2583 569.736C60.4772 569.071 60.8918 568.584 61.502 568.276C62.1123 567.969 62.7499 567.924 63.4147 568.143C64.0796 568.362 64.566 568.777 64.874 569.387C65.1819 569.997 65.2264 570.635 65.0074 571.299C64.7885 571.964 64.3739 572.451 63.7637 572.759C63.1534 573.067 62.5159 573.111 61.851 572.892ZM64.8742 578.099C64.2093 577.88 63.7229 577.465 63.415 576.855C63.1071 576.245 63.0626 575.607 63.2815 574.942C63.5004 574.278 63.915 573.791 64.5253 573.483C65.1355 573.175 65.7731 573.131 66.438 573.35C67.1029 573.569 67.5893 573.983 67.8972 574.593C68.2051 575.204 68.2496 575.841 68.0307 576.506C67.8118 577.171 67.3972 577.657 66.7869 577.965C66.1767 578.273 65.5391 578.318 64.8742 578.099ZM49.5413 583.578C48.8289 583.344 48.3213 582.874 48.0183 582.169C47.7153 581.464 47.6862 580.739 47.9312 579.995C48.2023 579.172 48.7205 578.544 49.4857 578.112C50.251 577.679 51.0097 577.254 51.7619 576.835C52.3825 576.495 52.9542 576.091 53.4769 575.623C53.9996 575.154 54.5739 574.742 55.1998 574.387C55.6836 574.09 56.1994 573.883 56.7471 573.765C57.2948 573.647 57.8377 573.676 58.376 573.854C58.9142 574.031 59.3712 574.322 59.7469 574.726C60.1225 575.131 60.4168 575.596 60.6295 576.122C60.906 576.775 61.1179 577.45 61.2654 578.148C61.4129 578.845 61.6328 579.523 61.9251 580.181C62.2811 580.965 62.6384 581.758 62.9971 582.561C63.3558 583.363 63.3996 584.176 63.1286 584.999C62.8836 585.743 62.4298 586.309 61.7671 586.696C61.1044 587.083 60.4169 587.159 59.7045 586.925C58.8497 586.643 58.0262 586.293 57.2341 585.874C56.442 585.456 55.6185 585.106 54.7637 584.824C53.9088 584.543 53.0384 584.335 52.1525 584.201C51.2666 584.067 50.3962 583.86 49.5413 583.578Z" fill="#FF9340"/>
</g>
<g clip-path="url(#clip6_20_482)">
<path d="M15.5872 590.296C14.9223 590.077 14.4359 589.663 14.1279 589.052C13.82 588.442 13.7755 587.804 13.9944 587.14C14.2134 586.475 14.628 585.988 15.2382 585.68C15.8485 585.372 16.486 585.328 17.1509 585.547C17.8158 585.766 18.3022 586.18 18.6101 586.791C18.918 587.401 18.9625 588.038 18.7436 588.703C18.5247 589.368 18.1101 589.855 17.4999 590.163C16.8896 590.47 16.252 590.515 15.5872 590.296ZM21.1124 587.904C20.4475 587.685 19.9611 587.271 19.6532 586.66C19.3453 586.05 19.3008 585.412 19.5197 584.748C19.7386 584.083 20.1532 583.596 20.7635 583.288C21.3737 582.98 22.0113 582.936 22.6762 583.155C23.3411 583.374 23.8275 583.788 24.1354 584.399C24.4433 585.009 24.4878 585.646 24.2689 586.311C24.05 586.976 23.6354 587.463 23.0251 587.771C22.4149 588.079 21.7773 588.123 21.1124 587.904ZM26.8114 589.781C26.1465 589.562 25.6601 589.147 25.3522 588.537C25.0443 587.927 24.9998 587.289 25.2187 586.624C25.4376 585.959 25.8522 585.473 26.4625 585.165C27.0727 584.857 27.7103 584.813 28.3752 585.031C29.0401 585.25 29.5265 585.665 29.8344 586.275C30.1423 586.885 30.1868 587.523 29.9679 588.188C29.749 588.853 29.3344 589.339 28.7241 589.647C28.1139 589.955 27.4763 590 26.8114 589.781ZM29.8347 594.987C29.1698 594.768 28.6834 594.354 28.3755 593.744C28.0675 593.133 28.023 592.496 28.242 591.831C28.4609 591.166 28.8755 590.68 29.4857 590.372C30.096 590.064 30.7336 590.019 31.3984 590.238C32.0633 590.457 32.5497 590.872 32.8576 591.482C33.1656 592.092 33.2101 592.73 32.9911 593.395C32.7722 594.06 32.3576 594.546 31.7474 594.854C31.1371 595.162 30.4996 595.206 29.8347 594.987ZM14.5018 600.467C13.7894 600.232 13.2817 599.762 12.9787 599.057C12.6757 598.352 12.6467 597.628 12.8917 596.883C13.1627 596.06 13.6809 595.433 14.4462 595C15.2115 594.568 15.9702 594.142 16.7223 593.723C17.343 593.383 17.9147 592.979 18.4374 592.511C18.9601 592.043 19.5344 591.631 20.1603 591.275C20.6441 590.978 21.1598 590.771 21.7075 590.653C22.2552 590.535 22.7982 590.565 23.3364 590.742C23.8747 590.919 24.3316 591.21 24.7073 591.615C25.083 592.019 25.3772 592.484 25.59 593.011C25.8664 593.663 26.0784 594.338 26.2259 595.036C26.3734 595.734 26.5933 596.412 26.8855 597.069C27.2415 597.853 27.5989 598.647 27.9576 599.449C28.3163 600.252 28.3601 601.064 28.089 601.888C27.844 602.632 27.3902 603.197 26.7276 603.584C26.0649 603.972 25.3774 604.048 24.665 603.813C23.8101 603.532 22.9867 603.182 22.1946 602.763C21.4024 602.344 20.579 601.994 19.7241 601.713C18.8693 601.431 17.9989 601.223 17.1129 601.09C16.227 600.956 15.3566 600.748 14.5018 600.467Z" fill="#FF9340"/>
</g>
<g clip-path="url(#clip7_20_482)">
<path d="M88.9387 338.352C88.2738 338.134 87.7874 337.719 87.4795 337.109C87.1716 336.498 87.1271 335.861 87.346 335.196C87.5649 334.531 87.9795 334.045 88.5898 333.737C89.2 333.429 89.8376 333.384 90.5025 333.603C91.1674 333.822 91.6538 334.237 91.9617 334.847C92.2696 335.457 92.3141 336.095 92.0952 336.76C91.8763 337.425 91.4617 337.911 90.8514 338.219C90.2412 338.527 89.6036 338.571 88.9387 338.352ZM94.464 335.96C93.7991 335.742 93.3127 335.327 93.0048 334.717C92.6968 334.106 92.6524 333.469 92.8713 332.804C93.0902 332.139 93.5048 331.653 94.115 331.345C94.7253 331.037 95.3629 330.992 96.0277 331.211C96.6926 331.43 97.179 331.845 97.487 332.455C97.7949 333.065 97.8394 333.703 97.6205 334.368C97.4015 335.033 96.9869 335.519 96.3767 335.827C95.7664 336.135 95.1289 336.179 94.464 335.96ZM100.163 337.837C99.4981 337.618 99.0117 337.203 98.7038 336.593C98.3959 335.983 98.3514 335.345 98.5703 334.681C98.7892 334.016 99.2038 333.529 99.8141 333.221C100.424 332.913 101.062 332.869 101.727 333.088C102.392 333.307 102.878 333.721 103.186 334.332C103.494 334.942 103.538 335.579 103.319 336.244C103.101 336.909 102.686 337.396 102.076 337.704C101.465 338.011 100.828 338.056 100.163 337.837ZM103.186 343.044C102.521 342.825 102.035 342.41 101.727 341.8C101.419 341.19 101.375 340.552 101.594 339.887C101.812 339.222 102.227 338.736 102.837 338.428C103.448 338.12 104.085 338.076 104.75 338.295C105.415 338.513 105.901 338.928 106.209 339.538C106.517 340.149 106.562 340.786 106.343 341.451C106.124 342.116 105.709 342.602 105.099 342.91C104.489 343.218 103.851 343.263 103.186 343.044ZM87.8533 348.523C87.141 348.289 86.6333 347.819 86.3303 347.114C86.0273 346.409 85.9983 345.684 86.2432 344.94C86.5143 344.117 87.0325 343.489 87.7977 343.057C88.563 342.624 89.3217 342.199 90.0739 341.779C90.6945 341.44 91.2662 341.036 91.7889 340.567C92.3116 340.099 92.8859 339.687 93.5118 339.332C93.9956 339.035 94.5114 338.827 95.0591 338.71C95.6068 338.592 96.1497 338.621 96.688 338.798C97.2262 338.976 97.6832 339.266 98.0589 339.671C98.4346 340.075 98.7288 340.541 98.9415 341.067C99.218 341.72 99.4299 342.395 99.5774 343.093C99.7249 343.79 99.9448 344.468 100.237 345.126C100.593 345.91 100.95 346.703 101.309 347.505C101.668 348.308 101.712 349.121 101.441 349.944C101.196 350.688 100.742 351.254 100.079 351.641C99.4165 352.028 98.7289 352.104 98.0166 351.87C97.1617 351.588 96.3382 351.238 95.5461 350.819C94.754 350.401 93.9305 350.05 93.0757 349.769C92.2208 349.488 91.3504 349.28 90.4645 349.146C89.5786 349.012 88.7082 348.805 87.8533 348.523Z" fill="#FF9340"/>
</g>
<g clip-path="url(#clip8_20_482)">
<path d="M126.156 311.653C125.491 311.434 125.005 311.019 124.697 310.409C124.389 309.799 124.344 309.161 124.563 308.496C124.782 307.832 125.197 307.345 125.807 307.037C126.417 306.729 127.055 306.685 127.72 306.904C128.385 307.123 128.871 307.537 129.179 308.148C129.487 308.758 129.531 309.395 129.312 310.06C129.094 310.725 128.679 311.212 128.069 311.519C127.458 311.827 126.821 311.872 126.156 311.653ZM131.681 309.261C131.016 309.042 130.53 308.627 130.222 308.017C129.914 307.407 129.87 306.769 130.089 306.105C130.307 305.44 130.722 304.953 131.332 304.645C131.943 304.337 132.58 304.293 133.245 304.512C133.91 304.731 134.396 305.145 134.704 305.756C135.012 306.366 135.057 307.003 134.838 307.668C134.619 308.333 134.204 308.82 133.594 309.127C132.984 309.435 132.346 309.48 131.681 309.261ZM137.38 311.137C136.715 310.919 136.229 310.504 135.921 309.894C135.613 309.283 135.569 308.646 135.788 307.981C136.006 307.316 136.421 306.83 137.031 306.522C137.642 306.214 138.279 306.169 138.944 306.388C139.609 306.607 140.095 307.022 140.403 307.632C140.711 308.242 140.756 308.88 140.537 309.545C140.318 310.21 139.903 310.696 139.293 311.004C138.683 311.312 138.045 311.356 137.38 311.137ZM140.404 316.344C139.739 316.125 139.252 315.711 138.944 315.1C138.636 314.49 138.592 313.853 138.811 313.188C139.03 312.523 139.444 312.036 140.055 311.729C140.665 311.421 141.302 311.376 141.967 311.595C142.632 311.814 143.119 312.229 143.426 312.839C143.734 313.449 143.779 314.087 143.56 314.752C143.341 315.416 142.926 315.903 142.316 316.211C141.706 316.519 141.068 316.563 140.404 316.344ZM125.071 321.824C124.358 321.589 123.851 321.119 123.548 320.414C123.245 319.709 123.216 318.984 123.461 318.24C123.732 317.417 124.25 316.789 125.015 316.357C125.78 315.925 126.539 315.499 127.291 315.08C127.912 314.74 128.484 314.336 129.006 313.868C129.529 313.4 130.103 312.988 130.729 312.632C131.213 312.335 131.729 312.128 132.276 312.01C132.824 311.892 133.367 311.922 133.905 312.099C134.444 312.276 134.9 312.567 135.276 312.971C135.652 313.376 135.946 313.841 136.159 314.368C136.435 315.02 136.647 315.695 136.795 316.393C136.942 317.091 137.162 317.769 137.454 318.426C137.81 319.21 138.168 320.004 138.526 320.806C138.885 321.608 138.929 322.421 138.658 323.244C138.413 323.988 137.959 324.554 137.296 324.941C136.634 325.328 135.946 325.405 135.234 325.17C134.379 324.889 133.556 324.539 132.763 324.12C131.971 323.701 131.148 323.351 130.293 323.069C129.438 322.788 128.568 322.58 127.682 322.447C126.796 322.313 125.925 322.105 125.071 321.824Z" fill="#FF9340"/>
</g>
<g clip-path="url(#clip9_20_482)">
<path d="M163.374 284.953C162.709 284.734 162.222 284.32 161.915 283.71C161.607 283.099 161.562 282.462 161.781 281.797C162 281.132 162.415 280.646 163.025 280.338C163.635 280.03 164.273 279.985 164.938 280.204C165.602 280.423 166.089 280.838 166.397 281.448C166.705 282.058 166.749 282.696 166.53 283.361C166.311 284.026 165.897 284.512 165.286 284.82C164.676 285.128 164.039 285.172 163.374 284.953ZM168.899 282.561C168.234 282.343 167.748 281.928 167.44 281.318C167.132 280.707 167.087 280.07 167.306 279.405C167.525 278.74 167.94 278.254 168.55 277.946C169.16 277.638 169.798 277.593 170.463 277.812C171.128 278.031 171.614 278.446 171.922 279.056C172.23 279.666 172.274 280.304 172.056 280.969C171.837 281.634 171.422 282.12 170.812 282.428C170.201 282.736 169.564 282.78 168.899 282.561ZM174.598 284.438C173.933 284.219 173.447 283.804 173.139 283.194C172.831 282.584 172.786 281.946 173.005 281.281C173.224 280.617 173.639 280.13 174.249 279.822C174.859 279.514 175.497 279.47 176.162 279.689C176.827 279.908 177.313 280.322 177.621 280.933C177.929 281.543 177.973 282.18 177.755 282.845C177.536 283.51 177.121 283.997 176.511 284.304C175.9 284.612 175.263 284.657 174.598 284.438ZM177.621 289.645C176.956 289.426 176.47 289.011 176.162 288.401C175.854 287.791 175.81 287.153 176.029 286.488C176.248 285.823 176.662 285.337 177.272 285.029C177.883 284.721 178.52 284.677 179.185 284.896C179.85 285.114 180.336 285.529 180.644 286.139C180.952 286.75 180.997 287.387 180.778 288.052C180.559 288.717 180.144 289.203 179.534 289.511C178.924 289.819 178.286 289.864 177.621 289.645ZM162.288 295.124C161.576 294.89 161.068 294.42 160.765 293.715C160.462 293.009 160.433 292.285 160.678 291.541C160.949 290.718 161.468 290.09 162.233 289.658C162.998 289.225 163.757 288.799 164.509 288.38C165.13 288.041 165.701 287.637 166.224 287.168C166.747 286.7 167.321 286.288 167.947 285.933C168.431 285.636 168.946 285.428 169.494 285.31C170.042 285.192 170.585 285.222 171.123 285.399C171.661 285.577 172.118 285.867 172.494 286.272C172.87 286.676 173.164 287.142 173.377 287.668C173.653 288.32 173.865 288.996 174.012 289.693C174.16 290.391 174.38 291.069 174.672 291.727C175.028 292.511 175.385 293.304 175.744 294.106C176.103 294.909 176.147 295.722 175.876 296.545C175.631 297.289 175.177 297.855 174.514 298.242C173.852 298.629 173.164 298.705 172.452 298.471C171.597 298.189 170.773 297.839 169.981 297.42C169.189 297.002 168.366 296.651 167.511 296.37C166.656 296.088 165.785 295.881 164.9 295.747C164.014 295.613 163.143 295.406 162.288 295.124Z" fill="#FF9340"/>
</g>
<g clip-path="url(#clip10_20_482)">
<path d="M128.126 244.921C127.461 244.702 126.974 244.288 126.667 243.677C126.359 243.067 126.314 242.43 126.533 241.765C126.752 241.1 127.167 240.613 127.777 240.306C128.387 239.998 129.025 239.953 129.689 240.172C130.354 240.391 130.841 240.806 131.149 241.416C131.457 242.026 131.501 242.664 131.282 243.329C131.063 243.993 130.649 244.48 130.038 244.788C129.428 245.096 128.791 245.14 128.126 244.921ZM133.651 242.529C132.986 242.31 132.5 241.896 132.192 241.285C131.884 240.675 131.839 240.038 132.058 239.373C132.277 238.708 132.692 238.222 133.302 237.914C133.912 237.606 134.55 237.561 135.215 237.78C135.88 237.999 136.366 238.414 136.674 239.024C136.982 239.634 137.026 240.272 136.807 240.937C136.589 241.601 136.174 242.088 135.564 242.396C134.953 242.704 134.316 242.748 133.651 242.529ZM139.35 244.406C138.685 244.187 138.199 243.772 137.891 243.162C137.583 242.552 137.538 241.914 137.757 241.249C137.976 240.584 138.391 240.098 139.001 239.79C139.611 239.482 140.249 239.438 140.914 239.657C141.579 239.876 142.065 240.29 142.373 240.9C142.681 241.511 142.725 242.148 142.506 242.813C142.288 243.478 141.873 243.964 141.263 244.272C140.652 244.58 140.015 244.625 139.35 244.406ZM142.373 249.613C141.708 249.394 141.222 248.979 140.914 248.369C140.606 247.758 140.562 247.121 140.781 246.456C140.999 245.791 141.414 245.305 142.024 244.997C142.635 244.689 143.272 244.644 143.937 244.863C144.602 245.082 145.088 245.497 145.396 246.107C145.704 246.717 145.749 247.355 145.53 248.02C145.311 248.685 144.896 249.171 144.286 249.479C143.676 249.787 143.038 249.831 142.373 249.613ZM127.04 255.092C126.328 254.857 125.82 254.388 125.517 253.682C125.214 252.977 125.185 252.253 125.43 251.509C125.701 250.685 126.219 250.058 126.985 249.625C127.75 249.193 128.509 248.767 129.261 248.348C129.882 248.009 130.453 247.605 130.976 247.136C131.499 246.668 132.073 246.256 132.699 245.901C133.183 245.604 133.698 245.396 134.246 245.278C134.794 245.16 135.337 245.19 135.875 245.367C136.413 245.544 136.87 245.835 137.246 246.24C137.622 246.644 137.916 247.11 138.129 247.636C138.405 248.288 138.617 248.963 138.764 249.661C138.912 250.359 139.132 251.037 139.424 251.695C139.78 252.479 140.137 253.272 140.496 254.074C140.855 254.877 140.899 255.69 140.628 256.513C140.383 257.257 139.929 257.822 139.266 258.21C138.603 258.597 137.916 258.673 137.204 258.438C136.349 258.157 135.525 257.807 134.733 257.388C133.941 256.969 133.118 256.619 132.263 256.338C131.408 256.056 130.537 255.849 129.652 255.715C128.766 255.581 127.895 255.373 127.04 255.092Z" fill="#FF9340"/>
</g>
<g clip-path="url(#clip11_20_482)">
<path d="M166.953 226.122C166.288 225.903 165.802 225.488 165.494 224.878C165.186 224.268 165.141 223.63 165.36 222.965C165.579 222.3 165.994 221.814 166.604 221.506C167.214 221.198 167.852 221.153 168.517 221.372C169.182 221.591 169.668 222.006 169.976 222.616C170.284 223.226 170.328 223.864 170.109 224.529C169.89 225.194 169.476 225.68 168.866 225.988C168.255 226.296 167.618 226.34 166.953 226.122ZM172.478 223.73C171.813 223.511 171.327 223.096 171.019 222.486C170.711 221.876 170.667 221.238 170.885 220.573C171.104 219.908 171.519 219.422 172.129 219.114C172.739 218.806 173.377 218.761 174.042 218.98C174.707 219.199 175.193 219.614 175.501 220.224C175.809 220.834 175.854 221.472 175.635 222.137C175.416 222.802 175.001 223.288 174.391 223.596C173.781 223.904 173.143 223.949 172.478 223.73ZM178.177 225.606C177.512 225.387 177.026 224.973 176.718 224.362C176.41 223.752 176.366 223.115 176.584 222.45C176.803 221.785 177.218 221.298 177.828 220.99C178.438 220.682 179.076 220.638 179.741 220.857C180.406 221.076 180.892 221.49 181.2 222.101C181.508 222.711 181.553 223.349 181.334 224.013C181.115 224.678 180.7 225.165 180.09 225.473C179.48 225.781 178.842 225.825 178.177 225.606ZM181.2 230.813C180.536 230.594 180.049 230.179 179.741 229.569C179.433 228.959 179.389 228.321 179.608 227.656C179.827 226.991 180.241 226.505 180.851 226.197C181.462 225.889 182.099 225.845 182.764 226.064C183.429 226.283 183.915 226.697 184.223 227.307C184.531 227.918 184.576 228.555 184.357 229.22C184.138 229.885 183.723 230.371 183.113 230.679C182.503 230.987 181.865 231.032 181.2 230.813ZM165.867 236.292C165.155 236.058 164.647 235.588 164.344 234.883C164.041 234.178 164.012 233.453 164.257 232.709C164.528 231.886 165.047 231.258 165.812 230.826C166.577 230.393 167.336 229.968 168.088 229.548C168.709 229.209 169.28 228.805 169.803 228.337C170.326 227.868 170.9 227.456 171.526 227.101C172.01 226.804 172.526 226.597 173.073 226.479C173.621 226.361 174.164 226.39 174.702 226.568C175.24 226.745 175.697 227.036 176.073 227.44C176.449 227.844 176.743 228.31 176.956 228.836C177.232 229.489 177.444 230.164 177.592 230.862C177.739 231.559 177.959 232.237 178.251 232.895C178.607 233.679 178.965 234.472 179.323 235.275C179.682 236.077 179.726 236.89 179.455 237.713C179.21 238.457 178.756 239.023 178.093 239.41C177.431 239.797 176.743 239.873 176.031 239.639C175.176 239.357 174.352 239.007 173.56 238.588C172.768 238.17 171.945 237.82 171.09 237.538C170.235 237.257 169.365 237.049 168.479 236.915C167.593 236.781 166.722 236.574 165.867 236.292Z" fill="#FF9340"/>
</g>
<g clip-path="url(#clip12_20_482)">
<path d="M115.627 372.408C114.962 372.189 114.475 371.774 114.167 371.164C113.86 370.554 113.815 369.916 114.034 369.251C114.253 368.586 114.668 368.1 115.278 367.792C115.888 367.484 116.526 367.439 117.19 367.658C117.855 367.877 118.342 368.292 118.65 368.902C118.958 369.512 119.002 370.15 118.783 370.815C118.564 371.48 118.15 371.966 117.539 372.274C116.929 372.582 116.292 372.627 115.627 372.408ZM121.152 370.016C120.487 369.797 120.001 369.382 119.693 368.772C119.385 368.162 119.34 367.524 119.559 366.859C119.778 366.194 120.193 365.708 120.803 365.4C121.413 365.092 122.051 365.048 122.716 365.266C123.381 365.485 123.867 365.9 124.175 366.51C124.483 367.12 124.527 367.758 124.308 368.423C124.09 369.088 123.675 369.574 123.065 369.882C122.454 370.19 121.817 370.235 121.152 370.016ZM126.851 371.892C126.186 371.673 125.7 371.259 125.392 370.648C125.084 370.038 125.039 369.401 125.258 368.736C125.477 368.071 125.892 367.584 126.502 367.276C127.112 366.969 127.75 366.924 128.415 367.143C129.08 367.362 129.566 367.777 129.874 368.387C130.182 368.997 130.226 369.635 130.007 370.299C129.789 370.964 129.374 371.451 128.764 371.759C128.153 372.067 127.516 372.111 126.851 371.892ZM129.874 377.099C129.209 376.88 128.723 376.465 128.415 375.855C128.107 375.245 128.063 374.607 128.282 373.942C128.5 373.278 128.915 372.791 129.525 372.483C130.136 372.175 130.773 372.131 131.438 372.35C132.103 372.569 132.589 372.983 132.897 373.593C133.205 374.204 133.25 374.841 133.031 375.506C132.812 376.171 132.397 376.657 131.787 376.965C131.177 377.273 130.539 377.318 129.874 377.099ZM114.541 382.578C113.829 382.344 113.321 381.874 113.018 381.169C112.715 380.464 112.686 379.739 112.931 378.995C113.202 378.172 113.72 377.544 114.486 377.112C115.251 376.679 116.01 376.254 116.762 375.835C117.383 375.495 117.954 375.091 118.477 374.623C119 374.154 119.574 373.742 120.2 373.387C120.684 373.09 121.199 372.883 121.747 372.765C122.295 372.647 122.838 372.676 123.376 372.854C123.914 373.031 124.371 373.322 124.747 373.726C125.123 374.131 125.417 374.596 125.63 375.122C125.906 375.775 126.118 376.45 126.265 377.148C126.413 377.845 126.633 378.523 126.925 379.181C127.281 379.965 127.638 380.758 127.997 381.561C128.356 382.363 128.4 383.176 128.129 383.999C127.884 384.743 127.43 385.309 126.767 385.696C126.104 386.083 125.417 386.159 124.705 385.925C123.85 385.643 123.026 385.293 122.234 384.874C121.442 384.456 120.619 384.106 119.764 383.824C118.909 383.543 118.038 383.335 117.152 383.201C116.267 383.067 115.396 382.86 114.541 382.578Z" fill="#FF9340"/>
</g>
<g clip-path="url(#clip13_20_482)">
<path d="M80.5872 389.296C79.9223 389.077 79.4359 388.663 79.1279 388.052C78.82 387.442 78.7755 386.804 78.9944 386.14C79.2134 385.475 79.628 384.988 80.2382 384.68C80.8485 384.372 81.486 384.328 82.1509 384.547C82.8158 384.766 83.3022 385.18 83.6101 385.791C83.918 386.401 83.9625 387.038 83.7436 387.703C83.5247 388.368 83.1101 388.855 82.4999 389.163C81.8896 389.47 81.252 389.515 80.5872 389.296ZM86.1124 386.904C85.4475 386.685 84.9611 386.271 84.6532 385.66C84.3453 385.05 84.3008 384.412 84.5197 383.748C84.7386 383.083 85.1532 382.596 85.7635 382.288C86.3737 381.98 87.0113 381.936 87.6762 382.155C88.3411 382.374 88.8275 382.788 89.1354 383.399C89.4433 384.009 89.4878 384.646 89.2689 385.311C89.05 385.976 88.6354 386.463 88.0251 386.771C87.4149 387.079 86.7773 387.123 86.1124 386.904ZM91.8114 388.781C91.1465 388.562 90.6601 388.147 90.3522 387.537C90.0443 386.927 89.9998 386.289 90.2187 385.624C90.4376 384.959 90.8522 384.473 91.4625 384.165C92.0727 383.857 92.7103 383.813 93.3752 384.031C94.0401 384.25 94.5265 384.665 94.8344 385.275C95.1423 385.885 95.1868 386.523 94.9679 387.188C94.749 387.853 94.3344 388.339 93.7241 388.647C93.1139 388.955 92.4763 389 91.8114 388.781ZM94.8347 393.987C94.1698 393.768 93.6834 393.354 93.3755 392.744C93.0675 392.133 93.023 391.496 93.242 390.831C93.4609 390.166 93.8755 389.68 94.4857 389.372C95.096 389.064 95.7336 389.019 96.3984 389.238C97.0633 389.457 97.5497 389.872 97.8576 390.482C98.1656 391.092 98.2101 391.73 97.9911 392.395C97.7722 393.06 97.3576 393.546 96.7474 393.854C96.1371 394.162 95.4996 394.206 94.8347 393.987ZM79.5018 399.467C78.7894 399.232 78.2817 398.762 77.9787 398.057C77.6757 397.352 77.6467 396.628 77.8917 395.883C78.1627 395.06 78.6809 394.433 79.4462 394C80.2115 393.568 80.9702 393.142 81.7223 392.723C82.343 392.383 82.9147 391.979 83.4374 391.511C83.9601 391.043 84.5344 390.631 85.1603 390.275C85.6441 389.978 86.1598 389.771 86.7075 389.653C87.2552 389.535 87.7982 389.565 88.3364 389.742C88.8747 389.919 89.3316 390.21 89.7073 390.615C90.083 391.019 90.3772 391.484 90.59 392.011C90.8664 392.663 91.0784 393.338 91.2259 394.036C91.3734 394.734 91.5933 395.412 91.8855 396.069C92.2415 396.853 92.5989 397.647 92.9576 398.449C93.3163 399.252 93.3601 400.064 93.089 400.888C92.844 401.632 92.3902 402.197 91.7276 402.584C91.0649 402.972 90.3774 403.048 89.665 402.813C88.8101 402.532 87.9867 402.182 87.1946 401.763C86.4024 401.344 85.579 400.994 84.7241 400.713C83.8693 400.431 82.9989 400.223 82.1129 400.09C81.227 399.956 80.3566 399.748 79.5018 399.467Z" fill="#FF9340"/>
</g>
<g clip-path="url(#clip14_20_482)">
<path d="M153.939 137.352C153.274 137.134 152.787 136.719 152.48 136.109C152.172 135.498 152.127 134.861 152.346 134.196C152.565 133.531 152.98 133.045 153.59 132.737C154.2 132.429 154.838 132.384 155.502 132.603C156.167 132.822 156.654 133.237 156.962 133.847C157.27 134.457 157.314 135.095 157.095 135.76C156.876 136.425 156.462 136.911 155.851 137.219C155.241 137.527 154.604 137.571 153.939 137.352ZM159.464 134.961C158.799 134.742 158.313 134.327 158.005 133.717C157.697 133.106 157.652 132.469 157.871 131.804C158.09 131.139 158.505 130.653 159.115 130.345C159.725 130.037 160.363 129.992 161.028 130.211C161.693 130.43 162.179 130.845 162.487 131.455C162.795 132.065 162.839 132.703 162.62 133.368C162.402 134.033 161.987 134.519 161.377 134.827C160.766 135.135 160.129 135.179 159.464 134.961ZM165.163 136.837C164.498 136.618 164.012 136.204 163.704 135.593C163.396 134.983 163.351 134.345 163.57 133.681C163.789 133.016 164.204 132.529 164.814 132.221C165.424 131.913 166.062 131.869 166.727 132.088C167.392 132.307 167.878 132.721 168.186 133.332C168.494 133.942 168.538 134.579 168.319 135.244C168.101 135.909 167.686 136.396 167.076 136.704C166.465 137.011 165.828 137.056 165.163 136.837ZM168.186 142.044C167.521 141.825 167.035 141.41 166.727 140.8C166.419 140.19 166.375 139.552 166.594 138.887C166.812 138.222 167.227 137.736 167.837 137.428C168.448 137.12 169.085 137.076 169.75 137.295C170.415 137.514 170.901 137.928 171.209 138.538C171.517 139.149 171.562 139.786 171.343 140.451C171.124 141.116 170.709 141.602 170.099 141.91C169.489 142.218 168.851 142.263 168.186 142.044ZM152.853 147.523C152.141 147.289 151.633 146.819 151.33 146.114C151.027 145.409 150.998 144.684 151.243 143.94C151.514 143.117 152.032 142.489 152.798 142.057C153.563 141.624 154.322 141.199 155.074 140.779C155.695 140.44 156.266 140.036 156.789 139.567C157.312 139.099 157.886 138.687 158.512 138.332C158.996 138.035 159.511 137.827 160.059 137.71C160.607 137.592 161.15 137.621 161.688 137.798C162.226 137.976 162.683 138.267 163.059 138.671C163.435 139.075 163.729 139.541 163.942 140.067C164.218 140.72 164.43 141.395 164.577 142.093C164.725 142.79 164.945 143.468 165.237 144.126C165.593 144.91 165.95 145.703 166.309 146.506C166.668 147.308 166.712 148.121 166.441 148.944C166.196 149.688 165.742 150.254 165.079 150.641C164.416 151.028 163.729 151.104 163.017 150.87C162.162 150.588 161.338 150.238 160.546 149.819C159.754 149.401 158.931 149.051 158.076 148.769C157.221 148.488 156.35 148.28 155.465 148.146C154.579 148.012 153.708 147.805 152.853 147.523Z" fill="#FF9340"/>
</g>
<g clip-path="url(#clip15_20_482)">
<path d="M191.156 110.653C190.491 110.434 190.005 110.019 189.697 109.409C189.389 108.799 189.344 108.161 189.563 107.496C189.782 106.832 190.197 106.345 190.807 106.037C191.417 105.729 192.055 105.685 192.72 105.904C193.385 106.123 193.871 106.537 194.179 107.148C194.487 107.758 194.531 108.395 194.312 109.06C194.094 109.725 193.679 110.212 193.069 110.519C192.458 110.827 191.821 110.872 191.156 110.653ZM196.681 108.261C196.016 108.042 195.53 107.627 195.222 107.017C194.914 106.407 194.87 105.769 195.089 105.105C195.307 104.44 195.722 103.953 196.332 103.645C196.943 103.337 197.58 103.293 198.245 103.512C198.91 103.731 199.396 104.145 199.704 104.756C200.012 105.366 200.057 106.003 199.838 106.668C199.619 107.333 199.204 107.82 198.594 108.127C197.984 108.435 197.346 108.48 196.681 108.261ZM202.38 110.138C201.715 109.919 201.229 109.504 200.921 108.894C200.613 108.283 200.569 107.646 200.788 106.981C201.006 106.316 201.421 105.83 202.031 105.522C202.642 105.214 203.279 105.169 203.944 105.388C204.609 105.607 205.095 106.022 205.403 106.632C205.711 107.242 205.756 107.88 205.537 108.545C205.318 109.21 204.903 109.696 204.293 110.004C203.683 110.312 203.045 110.356 202.38 110.138ZM205.404 115.344C204.739 115.125 204.252 114.711 203.944 114.1C203.636 113.49 203.592 112.853 203.811 112.188C204.03 111.523 204.444 111.036 205.055 110.729C205.665 110.421 206.302 110.376 206.967 110.595C207.632 110.814 208.119 111.229 208.426 111.839C208.734 112.449 208.779 113.087 208.56 113.752C208.341 114.416 207.926 114.903 207.316 115.211C206.706 115.519 206.068 115.563 205.404 115.344ZM190.071 120.824C189.358 120.589 188.851 120.119 188.548 119.414C188.245 118.709 188.216 117.984 188.461 117.24C188.732 116.417 189.25 115.789 190.015 115.357C190.78 114.925 191.539 114.499 192.291 114.08C192.912 113.74 193.484 113.336 194.006 112.868C194.529 112.4 195.103 111.988 195.729 111.632C196.213 111.335 196.729 111.128 197.276 111.01C197.824 110.892 198.367 110.922 198.905 111.099C199.444 111.276 199.9 111.567 200.276 111.971C200.652 112.376 200.946 112.841 201.159 113.368C201.435 114.02 201.647 114.695 201.795 115.393C201.942 116.091 202.162 116.769 202.454 117.426C202.81 118.21 203.168 119.004 203.526 119.806C203.885 120.608 203.929 121.421 203.658 122.244C203.413 122.988 202.959 123.554 202.296 123.941C201.634 124.328 200.946 124.405 200.234 124.17C199.379 123.889 198.556 123.539 197.763 123.12C196.971 122.701 196.148 122.351 195.293 122.07C194.438 121.788 193.568 121.58 192.682 121.447C191.796 121.313 190.925 121.105 190.071 120.824Z" fill="#FF9340"/>
</g>
<g clip-path="url(#clip16_20_482)">
<path d="M228.374 83.9534C227.709 83.7345 227.222 83.3199 226.915 82.7096C226.607 82.0994 226.562 81.4618 226.781 80.7969C227 80.132 227.415 79.6456 228.025 79.3377C228.635 79.0298 229.273 78.9853 229.938 79.2042C230.602 79.4231 231.089 79.8377 231.397 80.448C231.705 81.0582 231.749 81.6958 231.53 82.3607C231.311 83.0256 230.897 83.512 230.286 83.8199C229.676 84.1278 229.039 84.1723 228.374 83.9534ZM233.899 81.5614C233.234 81.3425 232.748 80.9279 232.44 80.3177C232.132 79.7074 232.087 79.0698 232.306 78.405C232.525 77.7401 232.94 77.2537 233.55 76.9458C234.16 76.6378 234.798 76.5933 235.463 76.8123C236.128 77.0312 236.614 77.4458 236.922 78.056C237.23 78.6663 237.274 79.3038 237.056 79.9687C236.837 80.6336 236.422 81.12 235.812 81.4279C235.201 81.7359 234.564 81.7804 233.899 81.5614ZM239.598 83.4379C238.933 83.219 238.447 82.8044 238.139 82.1942C237.831 81.5839 237.786 80.9464 238.005 80.2815C238.224 79.6166 238.639 79.1302 239.249 78.8223C239.859 78.5143 240.497 78.4698 241.162 78.6888C241.827 78.9077 242.313 79.3223 242.621 79.9325C242.929 80.5428 242.973 81.1804 242.755 81.8452C242.536 82.5101 242.121 82.9965 241.511 83.3045C240.9 83.6124 240.263 83.6569 239.598 83.4379ZM242.621 88.6447C241.956 88.4257 241.47 88.0112 241.162 87.4009C240.854 86.7907 240.81 86.1531 241.029 85.4882C241.248 84.8233 241.662 84.3369 242.272 84.029C242.883 83.7211 243.52 83.6766 244.185 83.8955C244.85 84.1144 245.336 84.529 245.644 85.1393C245.952 85.7495 245.997 86.3871 245.778 87.052C245.559 87.7169 245.144 88.2033 244.534 88.5112C243.924 88.8191 243.286 88.8636 242.621 88.6447ZM227.288 94.1241C226.576 93.8896 226.068 93.4197 225.765 92.7146C225.462 92.0095 225.433 91.2849 225.678 90.5408C225.949 89.7176 226.468 89.0899 227.233 88.6575C227.998 88.2252 228.757 87.7994 229.509 87.3803C230.13 87.0407 230.701 86.6368 231.224 86.1684C231.747 85.7001 232.321 85.2882 232.947 84.9328C233.431 84.6358 233.946 84.4284 234.494 84.3105C235.042 84.1925 235.585 84.2221 236.123 84.3994C236.661 84.5766 237.118 84.8674 237.494 85.2719C237.87 85.6763 238.164 86.1417 238.377 86.668C238.653 87.3205 238.865 87.9957 239.012 88.6935C239.16 89.3913 239.38 90.069 239.672 90.7268C240.028 91.5108 240.385 92.304 240.744 93.1064C241.103 93.9089 241.147 94.7217 240.876 95.5449C240.631 96.2889 240.177 96.8545 239.514 97.2417C238.852 97.6289 238.164 97.7052 237.452 97.4706C236.597 97.1891 235.773 96.839 234.981 96.4203C234.189 96.0015 233.366 95.6514 232.511 95.3699C231.656 95.0885 230.785 94.8808 229.9 94.747C229.014 94.6133 228.143 94.4056 227.288 94.1241Z" fill="#FF9340"/>
</g>
<g clip-path="url(#clip17_20_482)">
<path d="M193.126 43.9212C192.461 43.7023 191.974 43.2877 191.667 42.6774C191.359 42.0672 191.314 41.4296 191.533 40.7647C191.752 40.0999 192.167 39.6135 192.777 39.3055C193.387 38.9976 194.025 38.9531 194.689 39.172C195.354 39.391 195.841 39.8056 196.149 40.4158C196.457 41.0261 196.501 41.6636 196.282 42.3285C196.063 42.9934 195.649 43.4798 195.038 43.7877C194.428 44.0956 193.791 44.1401 193.126 43.9212ZM198.651 41.5293C197.986 41.3103 197.5 40.8957 197.192 40.2855C196.884 39.6752 196.839 39.0377 197.058 38.3728C197.277 37.7079 197.692 37.2215 198.302 36.9136C198.912 36.6057 199.55 36.5612 200.215 36.7801C200.88 36.999 201.366 37.4136 201.674 38.0239C201.982 38.6341 202.026 39.2717 201.807 39.9366C201.589 40.6014 201.174 41.0878 200.564 41.3958C199.953 41.7037 199.316 41.7482 198.651 41.5293ZM204.35 43.4058C203.685 43.1869 203.199 42.7723 202.891 42.162C202.583 41.5518 202.538 40.9142 202.757 40.2493C202.976 39.5844 203.391 39.098 204.001 38.7901C204.611 38.4822 205.249 38.4377 205.914 38.6566C206.579 38.8755 207.065 39.2901 207.373 39.9004C207.681 40.5106 207.725 41.1482 207.506 41.8131C207.288 42.478 206.873 42.9644 206.263 43.2723C205.652 43.5802 205.015 43.6247 204.35 43.4058ZM207.373 48.6125C206.708 48.3936 206.222 47.979 205.914 47.3687C205.606 46.7585 205.562 46.1209 205.781 45.456C205.999 44.7912 206.414 44.3048 207.024 43.9968C207.635 43.6889 208.272 43.6444 208.937 43.8633C209.602 44.0823 210.088 44.4969 210.396 45.1071C210.704 45.7174 210.749 46.3549 210.53 47.0198C210.311 47.6847 209.896 48.1711 209.286 48.479C208.676 48.7869 208.038 48.8314 207.373 48.6125ZM192.04 54.092C191.328 53.8574 190.82 53.3876 190.517 52.6824C190.214 51.9773 190.185 51.2527 190.43 50.5087C190.701 49.6855 191.219 49.0577 191.985 48.6254C192.75 48.193 193.509 47.7673 194.261 47.3482C194.882 47.0086 195.453 46.6046 195.976 46.1362C196.499 45.6679 197.073 45.256 197.699 44.9006C198.183 44.6037 198.698 44.3962 199.246 44.2783C199.794 44.1603 200.337 44.19 200.875 44.3672C201.413 44.5444 201.87 44.8353 202.246 45.2397C202.622 45.6442 202.916 46.1095 203.129 46.6358C203.405 47.2883 203.617 47.9635 203.764 48.6613C203.912 49.3591 204.132 50.0369 204.424 50.6946C204.78 51.4786 205.137 52.2718 205.496 53.0743C205.855 53.8767 205.899 54.6895 205.628 55.5127C205.383 56.2567 204.929 56.8224 204.266 57.2095C203.603 57.5967 202.916 57.673 202.204 57.4384C201.349 57.157 200.525 56.8069 199.733 56.3881C198.941 55.9694 198.118 55.6193 197.263 55.3378C196.408 55.0563 195.537 54.8487 194.652 54.7149C193.766 54.5811 192.895 54.3735 192.04 54.092Z" fill="#FF9340"/>
</g>
<g clip-path="url(#clip18_20_482)">
<path d="M231.953 25.1215C231.288 24.9026 230.802 24.488 230.494 23.8778C230.186 23.2675 230.141 22.6299 230.36 21.9651C230.579 21.3002 230.994 20.8138 231.604 20.5059C232.214 20.1979 232.852 20.1534 233.517 20.3724C234.182 20.5913 234.668 21.0059 234.976 21.6161C235.284 22.2264 235.328 22.8639 235.109 23.5288C234.89 24.1937 234.476 24.6801 233.866 24.988C233.255 25.296 232.618 25.3405 231.953 25.1215ZM237.478 22.7296C236.813 22.5107 236.327 22.0961 236.019 21.4858C235.711 20.8756 235.667 20.238 235.885 19.5731C236.104 18.9082 236.519 18.4218 237.129 18.1139C237.739 17.806 238.377 17.7615 239.042 17.9804C239.707 18.1993 240.193 18.6139 240.501 19.2242C240.809 19.8344 240.854 20.472 240.635 21.1369C240.416 21.8018 240.001 22.2882 239.391 22.5961C238.781 22.904 238.143 22.9485 237.478 22.7296ZM243.177 24.6061C242.512 24.3872 242.026 23.9726 241.718 23.3623C241.41 22.7521 241.366 22.1145 241.584 21.4496C241.803 20.7847 242.218 20.2983 242.828 19.9904C243.438 19.6825 244.076 19.638 244.741 19.8569C245.406 20.0759 245.892 20.4904 246.2 21.1007C246.508 21.7109 246.553 22.3485 246.334 23.0134C246.115 23.6783 245.7 24.1647 245.09 24.4726C244.48 24.7805 243.842 24.825 243.177 24.6061ZM246.2 29.8128C245.536 29.5939 245.049 29.1793 244.741 28.5691C244.433 27.9588 244.389 27.3212 244.608 26.6564C244.827 25.9915 245.241 25.5051 245.851 25.1971C246.462 24.8892 247.099 24.8447 247.764 25.0637C248.429 25.2826 248.915 25.6972 249.223 26.3074C249.531 26.9177 249.576 27.5552 249.357 28.2201C249.138 28.885 248.723 29.3714 248.113 29.6793C247.503 29.9873 246.865 30.0318 246.2 29.8128ZM230.867 35.2923C230.155 35.0577 229.647 34.5879 229.344 33.8827C229.041 33.1776 229.012 32.453 229.257 31.709C229.528 30.8858 230.047 30.258 230.812 29.8257C231.577 29.3933 232.336 28.9676 233.088 28.5485C233.709 28.2089 234.28 27.8049 234.803 27.3366C235.326 26.8682 235.9 26.4563 236.526 26.1009C237.01 25.804 237.526 25.5966 238.073 25.4786C238.621 25.3606 239.164 25.3903 239.702 25.5675C240.24 25.7447 240.697 26.0356 241.073 26.44C241.449 26.8445 241.743 27.3098 241.956 27.8361C242.232 28.4886 242.444 29.1638 242.592 29.8616C242.739 30.5594 242.959 31.2372 243.251 31.8949C243.607 32.6789 243.965 33.4722 244.323 34.2746C244.682 35.077 244.726 35.8898 244.455 36.713C244.21 37.4571 243.756 38.0227 243.093 38.4098C242.431 38.797 241.743 38.8733 241.031 38.6388C240.176 38.3573 239.352 38.0072 238.56 37.5884C237.768 37.1697 236.945 36.8196 236.09 36.5381C235.235 36.2566 234.365 36.049 233.479 35.9152C232.593 35.7814 231.722 35.5738 230.867 35.2923Z" fill="#FF9340"/>
</g>
<g clip-path="url(#clip19_20_482)">
<path d="M180.627 171.408C179.962 171.189 179.475 170.774 179.167 170.164C178.86 169.554 178.815 168.916 179.034 168.251C179.253 167.586 179.668 167.1 180.278 166.792C180.888 166.484 181.526 166.44 182.19 166.658C182.855 166.877 183.342 167.292 183.65 167.902C183.958 168.512 184.002 169.15 183.783 169.815C183.564 170.48 183.15 170.966 182.539 171.274C181.929 171.582 181.292 171.627 180.627 171.408ZM186.152 169.016C185.487 168.797 185.001 168.382 184.693 167.772C184.385 167.162 184.34 166.524 184.559 165.859C184.778 165.194 185.193 164.708 185.803 164.4C186.413 164.092 187.051 164.048 187.716 164.266C188.381 164.485 188.867 164.9 189.175 165.51C189.483 166.12 189.527 166.758 189.308 167.423C189.09 168.088 188.675 168.574 188.065 168.882C187.454 169.19 186.817 169.235 186.152 169.016ZM191.851 170.892C191.186 170.673 190.7 170.259 190.392 169.648C190.084 169.038 190.039 168.401 190.258 167.736C190.477 167.071 190.892 166.584 191.502 166.276C192.112 165.969 192.75 165.924 193.415 166.143C194.08 166.362 194.566 166.777 194.874 167.387C195.182 167.997 195.226 168.635 195.007 169.299C194.789 169.964 194.374 170.451 193.764 170.759C193.153 171.067 192.516 171.111 191.851 170.892ZM194.874 176.099C194.209 175.88 193.723 175.465 193.415 174.855C193.107 174.245 193.063 173.607 193.282 172.942C193.5 172.278 193.915 171.791 194.525 171.483C195.136 171.175 195.773 171.131 196.438 171.35C197.103 171.569 197.589 171.983 197.897 172.593C198.205 173.204 198.25 173.841 198.031 174.506C197.812 175.171 197.397 175.657 196.787 175.965C196.177 176.273 195.539 176.318 194.874 176.099ZM179.541 181.578C178.829 181.344 178.321 180.874 178.018 180.169C177.715 179.464 177.686 178.739 177.931 177.995C178.202 177.172 178.72 176.544 179.486 176.112C180.251 175.679 181.01 175.254 181.762 174.835C182.383 174.495 182.954 174.091 183.477 173.623C184 173.154 184.574 172.742 185.2 172.387C185.684 172.09 186.199 171.883 186.747 171.765C187.295 171.647 187.838 171.676 188.376 171.854C188.914 172.031 189.371 172.322 189.747 172.726C190.123 173.131 190.417 173.596 190.63 174.122C190.906 174.775 191.118 175.45 191.265 176.148C191.413 176.845 191.633 177.523 191.925 178.181C192.281 178.965 192.638 179.758 192.997 180.561C193.356 181.363 193.4 182.176 193.129 182.999C192.884 183.743 192.43 184.309 191.767 184.696C191.104 185.083 190.417 185.159 189.705 184.925C188.85 184.643 188.026 184.293 187.234 183.874C186.442 183.456 185.619 183.106 184.764 182.824C183.909 182.543 183.038 182.335 182.152 182.201C181.267 182.067 180.396 181.86 179.541 181.578Z" fill="#FF9340"/>
</g>
<g clip-path="url(#clip20_20_482)">
<path d="M145.587 188.296C144.922 188.077 144.436 187.663 144.128 187.052C143.82 186.442 143.776 185.804 143.994 185.14C144.213 184.475 144.628 183.988 145.238 183.68C145.848 183.372 146.486 183.328 147.151 183.547C147.816 183.766 148.302 184.18 148.61 184.791C148.918 185.401 148.963 186.038 148.744 186.703C148.525 187.368 148.11 187.855 147.5 188.163C146.89 188.47 146.252 188.515 145.587 188.296ZM151.112 185.904C150.448 185.685 149.961 185.271 149.653 184.66C149.345 184.05 149.301 183.412 149.52 182.748C149.739 182.083 150.153 181.596 150.763 181.288C151.374 180.98 152.011 180.936 152.676 181.155C153.341 181.374 153.827 181.788 154.135 182.399C154.443 183.009 154.488 183.646 154.269 184.311C154.05 184.976 153.635 185.463 153.025 185.771C152.415 186.079 151.777 186.123 151.112 185.904ZM156.811 187.781C156.147 187.562 155.66 187.147 155.352 186.537C155.044 185.927 155 185.289 155.219 184.624C155.438 183.959 155.852 183.473 156.462 183.165C157.073 182.857 157.71 182.813 158.375 183.031C159.04 183.25 159.526 183.665 159.834 184.275C160.142 184.885 160.187 185.523 159.968 186.188C159.749 186.853 159.334 187.339 158.724 187.647C158.114 187.955 157.476 188 156.811 187.781ZM159.835 192.987C159.17 192.768 158.683 192.354 158.375 191.744C158.068 191.133 158.023 190.496 158.242 189.831C158.461 189.166 158.875 188.68 159.486 188.372C160.096 188.064 160.734 188.019 161.398 188.238C162.063 188.457 162.55 188.872 162.858 189.482C163.166 190.092 163.21 190.73 162.991 191.395C162.772 192.06 162.358 192.546 161.747 192.854C161.137 193.162 160.5 193.206 159.835 192.987ZM144.502 198.467C143.789 198.232 143.282 197.762 142.979 197.057C142.676 196.352 142.647 195.628 142.892 194.883C143.163 194.06 143.681 193.433 144.446 193C145.211 192.568 145.97 192.142 146.722 191.723C147.343 191.383 147.915 190.979 148.437 190.511C148.96 190.043 149.534 189.631 150.16 189.275C150.644 188.978 151.16 188.771 151.708 188.653C152.255 188.535 152.798 188.565 153.336 188.742C153.875 188.919 154.332 189.21 154.707 189.615C155.083 190.019 155.377 190.484 155.59 191.011C155.866 191.663 156.078 192.338 156.226 193.036C156.373 193.734 156.593 194.412 156.886 195.069C157.242 195.853 157.599 196.647 157.958 197.449C158.316 198.252 158.36 199.064 158.089 199.888C157.844 200.632 157.39 201.197 156.728 201.584C156.065 201.972 155.377 202.048 154.665 201.813C153.81 201.532 152.987 201.182 152.195 200.763C151.402 200.344 150.579 199.994 149.724 199.713C148.869 199.431 147.999 199.223 147.113 199.09C146.227 198.956 145.357 198.748 144.502 198.467Z" fill="#FF9340"/>
</g>
</g>
<defs>
<clipPath id="clip0_20_482">
<rect width="24" height="24" fill="white" transform="translate(23.4565 526.428) rotate(18.2252)"/>
</clipPath>
<clipPath id="clip1_20_482">
<rect width="24" height="24" fill="white" transform="translate(60.6738 499.729) rotate(18.2252)"/>
</clipPath>
<clipPath id="clip2_20_482">
<rect width="24" height="24" fill="white" transform="translate(97.8916 473.029) rotate(18.2252)"/>
</clipPath>
<clipPath id="clip3_20_482">
<rect width="24" height="24" fill="white" transform="translate(62.6436 432.997) rotate(18.2252)"/>
</clipPath>
<clipPath id="clip4_20_482">
<rect width="24" height="24" fill="white" transform="translate(101.471 414.197) rotate(18.2252)"/>
</clipPath>
<clipPath id="clip5_20_482">
<rect width="24" height="24" fill="white" transform="translate(50.1445 560.483) rotate(18.2252)"/>
</clipPath>
<clipPath id="clip6_20_482">
<rect width="24" height="24" fill="white" transform="translate(15.105 577.372) rotate(18.2252)"/>
</clipPath>
<clipPath id="clip7_20_482">
<rect width="24" height="24" fill="white" transform="translate(88.4565 325.428) rotate(18.2252)"/>
</clipPath>
<clipPath id="clip8_20_482">
<rect width="24" height="24" fill="white" transform="translate(125.674 298.729) rotate(18.2252)"/>
</clipPath>
<clipPath id="clip9_20_482">
<rect width="24" height="24" fill="white" transform="translate(162.892 272.029) rotate(18.2252)"/>
</clipPath>
<clipPath id="clip10_20_482">
<rect width="24" height="24" fill="white" transform="translate(127.644 231.997) rotate(18.2252)"/>
</clipPath>
<clipPath id="clip11_20_482">
<rect width="24" height="24" fill="white" transform="translate(166.471 213.197) rotate(18.2252)"/>
</clipPath>
<clipPath id="clip12_20_482">
<rect width="24" height="24" fill="white" transform="translate(115.145 359.483) rotate(18.2252)"/>
</clipPath>
<clipPath id="clip13_20_482">
<rect width="24" height="24" fill="white" transform="translate(80.105 376.372) rotate(18.2252)"/>
</clipPath>
<clipPath id="clip14_20_482">
<rect width="24" height="24" fill="white" transform="translate(153.457 124.428) rotate(18.2252)"/>
</clipPath>
<clipPath id="clip15_20_482">
<rect width="24" height="24" fill="white" transform="translate(190.674 97.7288) rotate(18.2252)"/>
</clipPath>
<clipPath id="clip16_20_482">
<rect width="24" height="24" fill="white" transform="translate(227.892 71.0292) rotate(18.2252)"/>
</clipPath>
<clipPath id="clip17_20_482">
<rect width="24" height="24" fill="white" transform="translate(192.644 30.9971) rotate(18.2252)"/>
</clipPath>
<clipPath id="clip18_20_482">
<rect width="24" height="24" fill="white" transform="translate(231.471 12.1974) rotate(18.2252)"/>
</clipPath>
<clipPath id="clip19_20_482">
<rect width="24" height="24" fill="white" transform="translate(180.145 158.483) rotate(18.2252)"/>
</clipPath>
<clipPath id="clip20_20_482">
<rect width="24" height="24" fill="white" transform="translate(145.105 175.372) rotate(18.2252)"/>
</clipPath>
</defs>
</svg>
