<svg width="18" height="18" viewBox="0 0 18 18" fill="none" xmlns="http://www.w3.org/2000/svg">
<g id="pets_FILL0_wght400_GRAD0_opsz24 8">
<path id="Vector" d="M3.375 9.09375C2.85 9.09375 2.40625 8.9125 2.04375 8.55C1.68125 8.1875 1.5 7.74375 1.5 7.21875C1.5 6.69375 1.68125 6.25 2.04375 5.8875C2.40625 5.525 2.85 5.34375 3.375 5.34375C3.9 5.34375 4.34375 5.525 4.70625 5.8875C5.06875 6.25 5.25 6.69375 5.25 7.21875C5.25 7.74375 5.06875 8.1875 4.70625 8.55C4.34375 8.9125 3.9 9.09375 3.375 9.09375ZM6.75 6.09375C6.225 6.09375 5.78125 5.9125 5.41875 5.55C5.05625 5.1875 4.875 4.74375 4.875 4.21875C4.875 3.69375 5.05625 3.25 5.41875 2.8875C5.78125 2.525 6.225 2.34375 6.75 2.34375C7.275 2.34375 7.71875 2.525 8.08125 2.8875C8.44375 3.25 8.625 3.69375 8.625 4.21875C8.625 4.74375 8.44375 5.1875 8.08125 5.55C7.71875 5.9125 7.275 6.09375 6.75 6.09375ZM11.25 6.09375C10.725 6.09375 10.2812 5.9125 9.91875 5.55C9.55625 5.1875 9.375 4.74375 9.375 4.21875C9.375 3.69375 9.55625 3.25 9.91875 2.8875C10.2812 2.525 10.725 2.34375 11.25 2.34375C11.775 2.34375 12.2188 2.525 12.5813 2.8875C12.9438 3.25 13.125 3.69375 13.125 4.21875C13.125 4.74375 12.9438 5.1875 12.5813 5.55C12.2188 5.9125 11.775 6.09375 11.25 6.09375ZM14.625 9.09375C14.1 9.09375 13.6563 8.9125 13.2938 8.55C12.9313 8.1875 12.75 7.74375 12.75 7.21875C12.75 6.69375 12.9313 6.25 13.2938 5.8875C13.6563 5.525 14.1 5.34375 14.625 5.34375C15.15 5.34375 15.5938 5.525 15.9563 5.8875C16.3188 6.25 16.5 6.69375 16.5 7.21875C16.5 7.74375 16.3188 8.1875 15.9563 8.55C15.5938 8.9125 15.15 9.09375 14.625 9.09375ZM4.9875 16.5938C4.425 16.5938 3.95312 16.3781 3.57188 15.9469C3.19063 15.5156 3 15.0063 3 14.4188C3 13.7688 3.22188 13.2 3.66563 12.7125C4.10938 12.225 4.55 11.7438 4.9875 11.2688C5.35 10.8813 5.6625 10.4594 5.925 10.0031C6.1875 9.54688 6.5 9.11875 6.8625 8.71875C7.1375 8.39375 7.45625 8.125 7.81875 7.9125C8.18125 7.7 8.575 7.59375 9 7.59375C9.425 7.59375 9.81875 7.69375 10.1813 7.89375C10.5438 8.09375 10.8625 8.35625 11.1375 8.68125C11.4875 9.08125 11.7969 9.5125 12.0656 9.975C12.3344 10.4375 12.65 10.8688 13.0125 11.2688C13.45 11.7438 13.8906 12.225 14.3344 12.7125C14.7781 13.2 15 13.7688 15 14.4188C15 15.0063 14.8094 15.5156 14.4281 15.9469C14.0469 16.3781 13.575 16.5938 13.0125 16.5938C12.3375 16.5938 11.6688 16.5375 11.0063 16.425C10.3438 16.3125 9.675 16.2563 9 16.2563C8.325 16.2563 7.65625 16.3125 6.99375 16.425C6.33125 16.5375 5.6625 16.5938 4.9875 16.5938Z" fill="#FFBD59"/>
</g>
</svg>
